<?xml version="1.0" encoding="UTF-8" standalone="no"?>
<!-- Created with Inkscape (http://www.inkscape.org/) -->

<svg
   width="169.29985mm"
   height="29.621878mm"
   viewBox="0 0 169.29985 29.621878"
   version="1.1"
   id="svg1"
   xml:space="preserve"
   inkscape:export-filename="logo.png"
   inkscape:export-xdpi="3512.2151"
   inkscape:export-ydpi="3512.2151"
   inkscape:version="1.3.2 (091e20e, 2023-11-25, custom)"
   sodipodi:docname="drawing.svg"
   xmlns:inkscape="http://www.inkscape.org/namespaces/inkscape"
   xmlns:sodipodi="http://sodipodi.sourceforge.net/DTD/sodipodi-0.dtd"
   xmlns="http://www.w3.org/2000/svg"
   xmlns:svg="http://www.w3.org/2000/svg"><sodipodi:namedview
     id="namedview1"
     pagecolor="#ffffff"
     bordercolor="#000000"
     borderopacity="0.25"
     inkscape:showpageshadow="2"
     inkscape:pageopacity="0.0"
     inkscape:pagecheckerboard="0"
     inkscape:deskcolor="#d1d1d1"
     inkscape:document-units="mm"
     inkscape:zoom="0.3640087"
     inkscape:cx="409.33087"
     inkscape:cy="668.94005"
     inkscape:window-width="2560"
     inkscape:window-height="1369"
     inkscape:window-x="1912"
     inkscape:window-y="-8"
     inkscape:window-maximized="1"
     inkscape:current-layer="layer1" /><defs
     id="defs1" /><g
     inkscape:label="Layer 1"
     inkscape:groupmode="layer"
     id="layer1"
     transform="translate(-22.688054,-111.04976)"><g
       inkscape:label="Taso 1"
       id="layer1-6"
       transform="matrix(0.04973739,0,0,0.04973739,19.348544,97.081148)"><path
         style="opacity:1;fill:#007bff;fill-opacity:1;stroke:#74bfe2;stroke-width:0;stroke-miterlimit:4;stroke-dasharray:none;stroke-opacity:1"
         d="m 527.85714,557.71936 c 0,152.86452 -102.42011,-162.50001 -229.64285,-162.50001 -127.22274,0 -231.071446,315.36454 -231.071446,162.50001 0,-152.86453 103.134416,-276.78571 230.357156,-276.78571 127.22274,10e-6 230.35714,123.92119 230.35714,276.78571 z"
         id="path3346"
         inkscape:connector-curvature="0"
         sodipodi:nodetypes="sssss" /><path
         style="opacity:1;fill:#0093ff;fill-opacity:1;stroke:#74bfe2;stroke-width:0;stroke-miterlimit:4;stroke-dasharray:none;stroke-opacity:1"
         d="m 528.21429,628.4151 c 0,152.86452 -102.42011,-162.50001 -229.64286,-162.50001 -127.22274,0 -231.071434,315.36454 -231.071434,162.50001 0,-152.86453 103.134404,-276.78571 230.357144,-276.78571 127.22275,10e-6 230.35715,123.92119 230.35715,276.78571 z"
         id="path3346-1"
         inkscape:connector-curvature="0"
         sodipodi:nodetypes="sssss" /><path
         style="opacity:1;fill:#00aaff;fill-opacity:1;stroke:#74bfe2;stroke-width:0;stroke-miterlimit:4;stroke-dasharray:none;stroke-opacity:1"
         d="m 528.92858,695.55796 c 0,152.86452 -102.42011,-162.50001 -229.64286,-162.50001 -127.22274,0 -231.071441,315.36454 -231.071441,162.50001 0,-152.86453 103.134411,-276.78571 230.357151,-276.78571 127.22275,1e-5 230.35715,123.92119 230.35715,276.78571 z"
         id="path3346-1-9"
         inkscape:connector-curvature="0"
         sodipodi:nodetypes="sssss" /><path
         style="opacity:1;fill:#00c6ff;fill-opacity:1;stroke:#74bfe2;stroke-width:0;stroke-miterlimit:4;stroke-dasharray:none;stroke-opacity:1"
         d="m 529.35715,759.84367 c 0,152.86452 -102.42011,-162.50001 -229.64286,-162.50001 -127.22274,0 -231.07144,315.36454 -231.07144,162.50001 0,-152.86453 103.13441,-276.7857 230.35715,-276.7857 127.22275,10e-6 230.35715,123.92118 230.35715,276.7857 z"
         id="path3346-1-9-7"
         inkscape:connector-curvature="0"
         sodipodi:nodetypes="sssss" /><path
         style="opacity:1;fill:#00dcff;fill-opacity:1;stroke:#74bfe2;stroke-width:0;stroke-miterlimit:4;stroke-dasharray:none;stroke-opacity:1"
         d="m 531.24149,834.50348 c 0,152.86452 -102.42011,-162.50001 -229.64286,-162.50001 -127.22274,0 -231.071435,315.36454 -231.071435,162.50001 0,-152.86453 103.134405,-276.7857 230.357145,-276.7857 127.22275,1e-5 230.35715,123.92118 230.35715,276.7857 z"
         id="path3346-1-9-7-7"
         inkscape:connector-curvature="0"
         sodipodi:nodetypes="sssss" /></g><path
       style="fill:#000000;stroke-width:1.5875"
       d="m 50.162578,114.61051 v 24.92743 c 0,0 4.368723,2.05586 6.424594,0 2.05587,-2.05588 0.77095,-13.87713 0.77095,-13.87713 l 8.480465,0.25698 c 0,0 1.28492,-5.65364 0,-5.91062 -1.28492,-0.25699 -8.480465,0.25698 -8.480465,0.25698 l -0.256984,-4.11174 h 8.223483 c 0,0 1.541901,-4.88269 -0.256985,-4.88269 -1.798886,0 -15.419027,0 -15.419027,0 z"
       id="path24" /><path
       style="fill:#000000;stroke-width:1.5875"
       d="m 97.679363,112.20294 -1.81715,27.98411 c 0,0 5.088017,1.09029 6.360027,0 1.272,-1.09029 1.99886,-28.34754 1.99886,-28.34754 0,0 -5.814877,-1.99886 -6.541737,0.36343 z"
       id="path27" /><path
       style="fill:#000000;stroke-width:1.5875"
       d="m 108.21883,112.20294 -1.81715,27.98411 c 0,0 5.08802,1.09029 6.36003,0 1.272,-1.09029 1.99886,-28.34754 1.99886,-28.34754 0,0 -5.81488,-1.99886 -6.54174,0.36343 z"
       id="path28" /><path
       style="fill:#000000;stroke-width:1.5875"
       d="m 115.73551,134.93009 c -3.6343,3.45258 1.18115,5.13344 1.18115,5.13344 0,0 3.53473,1.01364 3.99772,-1.908 0.19853,-1.25281 -1.02556,-2.87009 -1.64766,-3.16031 -1.74222,-0.81276 -3.53121,-0.0651 -3.53121,-0.0651 z"
       id="path29"
       sodipodi:nodetypes="ccssc" /><path
       id="path30"
       style="fill:#000000;stroke-width:1.5875"
       d="m 137.0366,111.47743 c -5.25099,0.003 -14.91867,0.37699 -14.91899,0.37724 l 0.1819,28.16572 19.85254,-0.27233 c 4.02522,-7.00689 0.0779,-11.93179 -2.2779,-12.97079 0.63391,-0.32626 1.51642,-1.2247 2.64997,-3.38894 2.50388,-4.7806 0.89955,-10.2037 -2.05104,-11.31868 -0.27708,-0.1047 -1.71627,-0.59322 -3.43648,-0.59222 z m -8.17677,4.25194 c 0.30264,0.004 0.68241,0.0199 1.16841,0.0413 1.21889,0.0597 5.03196,-0.0747 6.71328,0.74776 1.58116,0.7735 1.22476,5.64243 0.0739,6.40633 -1.09339,0.91696 -5.24956,0.58051 -7.64191,0.27698 -2.1154,-0.16435 -1.96841,-4.49697 -2.00711,-5.89214 -0.0262,-0.1764 0.0792,-1.05813 0.25683,-1.1927 0.31385,-0.31397 0.52869,-0.4003 1.4366,-0.38757 z m 0.50075,12.6969 c 2.1906,-0.0196 5.22871,0.25508 7.03678,0.35295 2.74761,0.14872 2.05535,4.49764 1.39836,5.97535 -0.80289,1.88279 -6.52449,1.94069 -9.61491,1.40094 -0.44136,-0.0771 -0.91918,-0.26816 -1.27589,-0.81132 -0.23578,-1.0421 0.009,-5.72113 0.4656,-6.35982 0.0673,-0.14594 0.18645,-0.43834 0.63459,-0.49144 0.38971,-0.0416 0.84995,-0.0621 1.35547,-0.0667 z" /><path
       style="fill:#000000;stroke-width:1.5875"
       d="m 147.9449,112.66169 v 27.75425 h 15.67601 c 0,0 1.86314,-3.40504 0,-5.26817 -1.86313,-1.86313 -9.76538,-0.77095 -9.76538,-0.77095 0,0 -0.25697,-5.13708 0,-5.13968 l 6.36035,-0.0642 c 0,0 1.68479,-0.61938 1.75433,-2.03635 0.0502,-1.02347 0.37354,-1.4041 -1.04763,-2.46087 -2.77631,-2.06443 -6.93856,-1.22067 -6.93856,-1.22067 v -6.93857 l 9.36828,-0.003 c 0.40006,-0.0684 2.68949,0.0827 2.60841,-0.49365 0.40636,-1.97868 0.95997,-3.30202 -3.97807,-4.28922 -6.72875,-1.34519 -14.03774,0.93156 -14.03774,0.93156 z"
       id="path33"
       sodipodi:nodetypes="cccscscssccccscc" /><path
       style="fill:#000000;stroke-width:1.5875"
       d="m 171.54428,111.93643 h 19.80693 c 1.00206,2.57147 0.68072,4.38671 0,5.99659 h -6.22374 v 21.44237 c -1.64365,0.37868 -3.40436,0.69152 -6.95059,0 V 117.7513 h -6.72345 c -0.96924,-2.13819 -0.75305,-4.0393 0.0908,-5.81487 z"
       id="path34"
       sodipodi:nodetypes="cccccccccc" /><path
       id="path35"
       style="fill:#000000;stroke-width:1.5875"
       d="m 80.242647,111.38752 -10.032979,0.41754 v 28.52901 h 5.996533 v -11.81168 l 3.919658,0.12867 2.927469,11.61945 7.157703,-0.032 -4.37286,-12.66796 c 2.048489,0.013 3.907067,-1.52513 4.397665,-3.15123 0.785334,-2.72301 0.55712,-4.43227 0.617016,-6.82336 -0.106268,-2.88168 -0.335859,-5.04513 -3.193086,-5.75623 -5.539243,-0.56311 -5.018206,-0.38705 -7.417119,-0.45217 z m -0.901753,5.11906 c 1.471659,-0.006 3.125617,0.16156 4.5005,0.72399 1.01103,1.13072 1.177446,3.81448 0.272852,5.47874 -0.595198,1.43488 -3.105553,0.81109 -6.364987,0.84129 -1.107639,-0.0994 -2.240329,0.17385 -2.640148,-0.65991 -0.744984,-1.49667 -0.49466,-5.17438 0.442867,-5.97793 0.306404,-0.10565 1.896782,-0.39889 3.788916,-0.40618 z" /></g></svg>
